<svg xmlns="http://www.w3.org/2000/svg" viewBox="0 0 42.52 60.74"><defs><style>.cls-1{fill:#18161b;}.cls-2{fill:#3b2416;}.cls-3{fill:#252625;}.cls-4{fill:#282628;}.cls-5{fill:#fdb515;}.cls-6{fill:#eecbb3;}.cls-7{fill:#e9c1a7;}.cls-8{fill:#251810;}.cls-9{fill:#eda19f;}</style></defs><title>Asset 3</title><g id="Layer_2" data-name="Layer 2"><g id="fiwi"><rect class="cls-1" x="40.15" y="58.65" width="2.37" height="2.09"/><rect class="cls-1" x="40.15" y="56.55" width="2.37" height="2.1"/><rect class="cls-1" x="40.15" y="54.46" width="2.37" height="2.1"/><rect class="cls-1" x="40.15" y="52.36" width="2.37" height="2.1"/><rect class="cls-1" x="40.15" y="50.27" width="2.37" height="2.09"/><rect class="cls-1" x="40.15" y="48.17" width="2.37" height="2.1"/><rect class="cls-1" x="40.15" y="46.07" width="2.37" height="2.1"/><rect class="cls-1" x="37.79" y="58.65" width="2.36" height="2.09"/><rect class="cls-1" x="37.79" y="56.55" width="2.36" height="2.1"/><rect class="cls-1" x="37.79" y="54.46" width="2.36" height="2.1"/><rect class="cls-1" x="37.79" y="52.36" width="2.36" height="2.1"/><rect class="cls-1" x="37.79" y="50.27" width="2.36" height="2.09"/><rect class="cls-1" x="37.79" y="48.17" width="2.36" height="2.1"/><rect class="cls-1" x="37.79" y="46.07" width="2.36" height="2.1"/><rect class="cls-1" x="37.79" y="43.99" width="2.36" height="2.09"/><rect class="cls-1" x="37.79" y="41.89" width="2.36" height="2.1"/><rect class="cls-1" x="37.79" y="39.79" width="2.36" height="2.1"/><rect class="cls-1" x="37.79" y="37.71" width="2.36" height="2.09"/><rect class="cls-1" x="37.79" y="35.61" width="2.36" height="2.1"/><rect class="cls-1" x="35.42" y="56.55" width="2.37" height="2.1"/><rect class="cls-1" x="35.42" y="54.46" width="2.37" height="2.1"/><rect class="cls-1" x="35.42" y="52.36" width="2.37" height="2.1"/><rect class="cls-1" x="35.42" y="50.27" width="2.37" height="2.09"/><rect class="cls-1" x="35.42" y="48.17" width="2.37" height="2.1"/><rect class="cls-1" x="35.42" y="46.07" width="2.37" height="2.1"/><rect class="cls-1" x="35.42" y="43.99" width="2.37" height="2.09"/><rect class="cls-1" x="35.42" y="41.89" width="2.37" height="2.1"/><rect class="cls-1" x="35.42" y="39.79" width="2.37" height="2.1"/><rect class="cls-1" x="35.42" y="37.71" width="2.37" height="2.09"/><rect class="cls-2" x="35.42" y="35.61" width="2.37" height="2.1"/><rect class="cls-2" x="35.42" y="33.51" width="2.37" height="2.1"/><rect class="cls-2" x="35.42" y="31.41" width="2.37" height="2.1"/><rect class="cls-2" x="35.42" y="29.33" width="2.37" height="2.09"/><rect class="cls-2" x="35.42" y="27.23" width="2.37" height="2.1"/><rect class="cls-2" x="35.42" y="25.13" width="2.37" height="2.1"/><rect class="cls-2" x="35.42" y="23.04" width="2.37" height="2.09"/><rect class="cls-2" x="35.42" y="20.95" width="2.37" height="2.1"/><rect class="cls-2" x="35.42" y="18.85" width="2.37" height="2.1"/><rect class="cls-2" x="35.42" y="16.76" width="2.37" height="2.09"/><rect class="cls-2" x="35.42" y="14.66" width="2.37" height="2.1"/><rect class="cls-2" x="35.42" y="12.56" width="2.37" height="2.1"/><rect class="cls-2" x="35.42" y="10.47" width="2.37" height="2.1"/><rect class="cls-2" x="35.42" y="8.38" width="2.37" height="2.09"/><rect class="cls-2" x="35.42" y="6.28" width="2.37" height="2.1"/><rect class="cls-3" x="33.07" y="58.65" width="2.36" height="2.09"/><rect class="cls-1" x="33.07" y="56.55" width="2.36" height="2.1"/><rect class="cls-1" x="33.07" y="54.46" width="2.36" height="2.1"/><rect class="cls-4" x="33.07" y="52.36" width="2.36" height="2.1"/><rect class="cls-1" x="33.07" y="50.27" width="2.36" height="2.09"/><rect class="cls-1" x="33.07" y="48.17" width="2.36" height="2.1"/><rect class="cls-1" x="33.07" y="46.07" width="2.36" height="2.1"/><rect class="cls-1" x="33.07" y="43.99" width="2.36" height="2.09"/><rect class="cls-1" x="33.07" y="41.89" width="2.36" height="2.1"/><rect class="cls-1" x="33.07" y="39.79" width="2.36" height="2.1"/><rect class="cls-1" x="33.07" y="37.71" width="2.36" height="2.09"/><rect class="cls-2" x="33.07" y="35.61" width="2.36" height="2.1"/><rect class="cls-2" x="33.07" y="33.51" width="2.36" height="2.1"/><rect class="cls-2" x="33.07" y="31.41" width="2.36" height="2.1"/><rect class="cls-2" x="33.07" y="29.33" width="2.36" height="2.09"/><rect class="cls-2" x="33.07" y="27.23" width="2.36" height="2.1"/><rect class="cls-2" x="33.07" y="25.13" width="2.36" height="2.1"/><rect class="cls-2" x="33.07" y="23.04" width="2.36" height="2.09"/><rect class="cls-2" x="33.07" y="20.95" width="2.36" height="2.1"/><rect class="cls-2" x="33.07" y="18.85" width="2.36" height="2.1"/><rect class="cls-2" x="33.07" y="16.76" width="2.36" height="2.09"/><rect class="cls-2" x="33.07" y="14.66" width="2.36" height="2.1"/><rect class="cls-2" x="33.07" y="12.56" width="2.36" height="2.1"/><rect class="cls-2" x="33.07" y="10.47" width="2.36" height="2.1"/><rect class="cls-2" x="33.07" y="8.38" width="2.36" height="2.09"/><rect class="cls-2" x="33.07" y="6.28" width="2.36" height="2.1"/><rect class="cls-3" x="30.71" y="58.65" width="2.36" height="2.09"/><rect class="cls-5" x="30.71" y="56.55" width="2.36" height="2.1"/><rect class="cls-5" x="30.71" y="54.46" width="2.36" height="2.1"/><rect class="cls-4" x="30.71" y="52.36" width="2.36" height="2.1"/><rect class="cls-4" x="30.71" y="50.27" width="2.36" height="2.09"/><rect class="cls-4" x="30.71" y="48.17" width="2.36" height="2.1"/><rect class="cls-1" x="30.71" y="46.07" width="2.36" height="2.1"/><rect class="cls-1" x="30.71" y="43.99" width="2.36" height="2.09"/><rect class="cls-1" x="30.71" y="41.89" width="2.36" height="2.1"/><rect class="cls-1" x="30.71" y="39.79" width="2.36" height="2.1"/><rect class="cls-1" x="30.71" y="37.71" width="2.36" height="2.09"/><rect class="cls-1" x="30.71" y="35.61" width="2.36" height="2.1"/><rect class="cls-1" x="30.71" y="33.51" width="2.36" height="2.1"/><rect class="cls-1" x="30.71" y="31.41" width="2.36" height="2.1"/><rect class="cls-6" x="30.71" y="29.33" width="2.36" height="2.09"/><rect class="cls-6" x="30.71" y="27.23" width="2.36" height="2.1"/><rect class="cls-6" x="30.71" y="25.13" width="2.36" height="2.1"/><rect class="cls-6" x="30.71" y="23.04" width="2.36" height="2.09"/><rect class="cls-6" x="30.71" y="20.95" width="2.36" height="2.1"/><rect class="cls-6" x="30.71" y="18.85" width="2.36" height="2.1"/><rect class="cls-7" x="30.71" y="16.76" width="2.36" height="2.09"/><rect class="cls-2" x="30.71" y="14.66" width="2.36" height="2.1"/><rect class="cls-2" x="30.71" y="12.56" width="2.36" height="2.1"/><rect class="cls-2" x="30.71" y="10.47" width="2.36" height="2.1"/><rect class="cls-2" x="30.71" y="8.38" width="2.36" height="2.09"/><rect class="cls-2" x="30.71" y="6.28" width="2.36" height="2.1"/><rect class="cls-2" x="30.71" y="4.18" width="2.36" height="2.1"/><rect class="cls-3" x="28.34" y="58.65" width="2.37" height="2.09"/><rect class="cls-5" x="28.34" y="56.55" width="2.37" height="2.1"/><rect class="cls-5" x="28.34" y="54.46" width="2.37" height="2.1"/><rect class="cls-4" x="28.34" y="52.36" width="2.37" height="2.1"/><rect class="cls-4" x="28.34" y="50.27" width="2.37" height="2.09"/><rect class="cls-4" x="28.34" y="48.17" width="2.37" height="2.1"/><rect class="cls-4" x="28.34" y="46.07" width="2.37" height="2.1"/><rect class="cls-1" x="28.34" y="43.99" width="2.37" height="2.09"/><rect class="cls-1" x="28.34" y="41.89" width="2.37" height="2.1"/><rect class="cls-1" x="28.34" y="39.79" width="2.37" height="2.1"/><rect class="cls-1" x="28.34" y="37.71" width="2.37" height="2.09"/><rect class="cls-1" x="28.34" y="35.61" width="2.37" height="2.1"/><rect class="cls-6" x="28.34" y="33.51" width="2.37" height="2.1"/><rect class="cls-6" x="28.34" y="31.41" width="2.37" height="2.1"/><rect class="cls-6" x="28.34" y="29.33" width="2.37" height="2.09"/><rect class="cls-6" x="28.34" y="27.23" width="2.37" height="2.1"/><rect class="cls-6" x="28.34" y="25.13" width="2.37" height="2.1"/><rect class="cls-6" x="28.34" y="23.04" width="2.37" height="2.09"/><rect class="cls-8" x="28.34" y="20.95" width="2.37" height="2.1"/><rect class="cls-8" x="28.34" y="18.85" width="2.37" height="2.1"/><rect class="cls-6" x="28.34" y="16.76" width="2.37" height="2.09"/><rect class="cls-6" x="28.34" y="14.66" width="2.37" height="2.1"/><rect class="cls-7" x="28.34" y="12.56" width="2.37" height="2.1"/><rect class="cls-2" x="28.34" y="10.47" width="2.37" height="2.1"/><rect class="cls-2" x="28.34" y="8.38" width="2.37" height="2.09"/><rect class="cls-2" x="28.34" y="6.28" width="2.37" height="2.1"/><rect class="cls-2" x="28.34" y="4.18" width="2.37" height="2.1"/><rect class="cls-2" x="28.34" y="2.1" width="2.37" height="2.09"/><rect class="cls-1" x="25.98" y="56.55" width="2.36" height="2.1"/><rect class="cls-1" x="25.98" y="54.46" width="2.36" height="2.1"/><rect class="cls-4" x="25.98" y="52.36" width="2.36" height="2.1"/><rect class="cls-4" x="25.98" y="50.27" width="2.36" height="2.09"/><rect class="cls-4" x="25.98" y="48.17" width="2.36" height="2.1"/><rect class="cls-4" x="25.98" y="46.07" width="2.36" height="2.1"/><rect class="cls-4" x="25.98" y="43.99" width="2.36" height="2.09"/><rect class="cls-1" x="25.98" y="41.89" width="2.36" height="2.1"/><rect class="cls-1" x="25.98" y="39.79" width="2.36" height="2.1"/><rect class="cls-1" x="25.98" y="37.71" width="2.36" height="2.09"/><rect class="cls-6" x="25.98" y="35.61" width="2.36" height="2.1"/><rect class="cls-6" x="25.98" y="33.51" width="2.36" height="2.1"/><rect class="cls-6" x="25.98" y="31.41" width="2.36" height="2.1"/><rect class="cls-6" x="25.98" y="29.33" width="2.36" height="2.09"/><rect class="cls-6" x="25.98" y="27.23" width="2.36" height="2.1"/><rect class="cls-6" x="25.98" y="25.13" width="2.36" height="2.1"/><rect class="cls-6" x="25.98" y="23.04" width="2.36" height="2.09"/><rect class="cls-6" x="25.98" y="20.95" width="2.36" height="2.1"/><rect class="cls-6" x="25.98" y="18.85" width="2.36" height="2.1"/><rect class="cls-6" x="25.98" y="16.76" width="2.36" height="2.09"/><rect class="cls-6" x="25.98" y="14.66" width="2.36" height="2.1"/><rect class="cls-7" x="25.98" y="12.56" width="2.36" height="2.1"/><rect class="cls-2" x="25.98" y="10.47" width="2.36" height="2.1"/><rect class="cls-2" x="25.98" y="8.38" width="2.36" height="2.09"/><rect class="cls-2" x="25.98" y="6.28" width="2.36" height="2.1"/><rect class="cls-2" x="25.98" y="4.18" width="2.36" height="2.1"/><rect class="cls-2" x="25.98" y="2.1" width="2.36" height="2.09"/><rect class="cls-1" x="23.62" y="56.55" width="2.36" height="2.1"/><rect class="cls-1" x="23.62" y="54.46" width="2.36" height="2.1"/><rect class="cls-4" x="23.62" y="52.36" width="2.36" height="2.1"/><rect class="cls-4" x="23.62" y="50.27" width="2.36" height="2.09"/><rect class="cls-4" x="23.62" y="48.17" width="2.36" height="2.1"/><rect class="cls-4" x="23.62" y="46.07" width="2.36" height="2.1"/><rect class="cls-4" x="23.62" y="43.99" width="2.36" height="2.09"/><rect class="cls-4" x="23.62" y="41.89" width="2.36" height="2.1"/><rect class="cls-1" x="23.62" y="39.79" width="2.36" height="2.1"/><rect class="cls-1" x="23.62" y="37.71" width="2.36" height="2.09"/><rect class="cls-6" x="23.62" y="35.61" width="2.36" height="2.1"/><rect class="cls-6" x="23.62" y="33.51" width="2.36" height="2.1"/><rect class="cls-6" x="23.62" y="31.41" width="2.36" height="2.1"/><rect class="cls-6" x="23.62" y="29.33" width="2.36" height="2.09"/><rect class="cls-6" x="23.62" y="27.23" width="2.36" height="2.1"/><rect class="cls-6" x="23.62" y="25.13" width="2.36" height="2.1"/><rect class="cls-6" x="23.62" y="23.04" width="2.36" height="2.09"/><rect class="cls-6" x="23.62" y="20.95" width="2.36" height="2.1"/><rect class="cls-6" x="23.62" y="18.85" width="2.36" height="2.1"/><rect class="cls-6" x="23.62" y="16.76" width="2.36" height="2.09"/><rect class="cls-6" x="23.62" y="14.66" width="2.36" height="2.1"/><rect class="cls-6" x="23.62" y="12.56" width="2.36" height="2.1"/><rect class="cls-2" x="23.62" y="10.47" width="2.36" height="2.1"/><rect class="cls-2" x="23.62" y="8.38" width="2.36" height="2.09"/><rect class="cls-2" x="23.62" y="6.28" width="2.36" height="2.1"/><rect class="cls-2" x="23.62" y="4.18" width="2.36" height="2.1"/><rect class="cls-2" x="23.62" y="2.1" width="2.36" height="2.09"/><rect class="cls-2" x="23.62" width="2.36" height="2.1"/><rect class="cls-1" x="21.25" y="56.55" width="2.37" height="2.1"/><rect class="cls-1" x="21.25" y="54.46" width="2.37" height="2.1"/><rect class="cls-4" x="21.25" y="52.36" width="2.37" height="2.1"/><rect class="cls-4" x="21.25" y="50.27" width="2.37" height="2.09"/><rect class="cls-4" x="21.25" y="48.17" width="2.37" height="2.1"/><rect class="cls-4" x="21.25" y="46.07" width="2.37" height="2.1"/><rect class="cls-4" x="21.25" y="43.99" width="2.37" height="2.09"/><rect class="cls-4" x="21.25" y="41.89" width="2.37" height="2.1"/><rect class="cls-4" x="21.25" y="39.79" width="2.37" height="2.1"/><rect class="cls-1" x="21.25" y="37.71" width="2.37" height="2.09"/><rect class="cls-6" x="21.25" y="35.61" width="2.37" height="2.1"/><rect class="cls-6" x="21.25" y="33.51" width="2.37" height="2.1"/><rect class="cls-6" x="21.25" y="31.41" width="2.37" height="2.1"/><rect class="cls-6" x="21.25" y="29.33" width="2.37" height="2.09"/><rect class="cls-6" x="21.25" y="27.23" width="2.37" height="2.1"/><rect class="cls-6" x="21.25" y="25.13" width="2.37" height="2.1"/><rect class="cls-6" x="21.25" y="23.04" width="2.37" height="2.09"/><rect class="cls-6" x="21.25" y="20.95" width="2.37" height="2.1"/><rect class="cls-6" x="21.25" y="18.85" width="2.37" height="2.1"/><rect class="cls-6" x="21.25" y="16.76" width="2.37" height="2.09"/><rect class="cls-6" x="21.25" y="14.66" width="2.37" height="2.1"/><rect class="cls-6" x="21.25" y="12.56" width="2.37" height="2.1"/><rect class="cls-2" x="21.25" y="10.47" width="2.37" height="2.1"/><rect class="cls-2" x="21.25" y="8.38" width="2.37" height="2.09"/><rect class="cls-2" x="21.25" y="6.28" width="2.37" height="2.1"/><rect class="cls-2" x="21.25" y="4.18" width="2.37" height="2.1"/><rect class="cls-2" x="21.25" y="2.1" width="2.37" height="2.09"/><rect class="cls-2" x="21.25" width="2.37" height="2.1"/><rect class="cls-1" x="18.9" y="56.55" width="2.36" height="2.1"/><rect class="cls-1" x="18.9" y="54.46" width="2.36" height="2.1"/><rect class="cls-4" x="18.9" y="52.36" width="2.36" height="2.1"/><rect class="cls-4" x="18.9" y="50.27" width="2.36" height="2.09"/><rect class="cls-4" x="18.9" y="48.17" width="2.36" height="2.1"/><rect class="cls-4" x="18.9" y="46.07" width="2.36" height="2.1"/><rect class="cls-4" x="18.9" y="43.99" width="2.36" height="2.09"/><rect class="cls-4" x="18.9" y="41.89" width="2.36" height="2.1"/><rect class="cls-4" x="18.9" y="39.79" width="2.36" height="2.1"/><rect class="cls-4" x="18.9" y="37.71" width="2.36" height="2.09"/><rect class="cls-6" x="18.9" y="35.61" width="2.36" height="2.1"/><rect class="cls-6" x="18.9" y="33.51" width="2.36" height="2.1"/><rect class="cls-9" x="18.9" y="31.41" width="2.36" height="2.1"/><rect class="cls-6" x="18.9" y="29.33" width="2.36" height="2.09"/><rect class="cls-6" x="18.9" y="27.23" width="2.36" height="2.1"/><rect class="cls-6" x="18.9" y="25.13" width="2.36" height="2.1"/><rect class="cls-6" x="18.9" y="23.04" width="2.36" height="2.09"/><rect class="cls-6" x="18.9" y="20.95" width="2.36" height="2.1"/><rect class="cls-6" x="18.9" y="18.85" width="2.36" height="2.1"/><rect class="cls-6" x="18.9" y="16.76" width="2.36" height="2.09"/><rect class="cls-6" x="18.9" y="14.66" width="2.36" height="2.1"/><rect class="cls-6" x="18.9" y="12.56" width="2.36" height="2.1"/><rect class="cls-2" x="18.9" y="10.47" width="2.36" height="2.1"/><rect class="cls-2" x="18.9" y="8.38" width="2.36" height="2.09"/><rect class="cls-2" x="18.9" y="6.28" width="2.36" height="2.1"/><rect class="cls-2" x="18.9" y="4.18" width="2.36" height="2.1"/><rect class="cls-2" x="18.9" y="2.1" width="2.36" height="2.09"/><rect class="cls-2" x="18.9" width="2.36" height="2.1"/><rect class="cls-1" x="16.54" y="56.55" width="2.36" height="2.1"/><rect class="cls-1" x="16.54" y="54.46" width="2.36" height="2.1"/><rect class="cls-4" x="16.54" y="52.36" width="2.36" height="2.1"/><rect class="cls-4" x="16.54" y="50.27" width="2.36" height="2.09"/><rect class="cls-4" x="16.54" y="48.17" width="2.36" height="2.1"/><rect class="cls-4" x="16.54" y="46.07" width="2.36" height="2.1"/><rect class="cls-4" x="16.54" y="43.99" width="2.36" height="2.09"/><rect class="cls-4" x="16.54" y="41.89" width="2.36" height="2.1"/><rect class="cls-4" x="16.54" y="39.79" width="2.36" height="2.1"/><rect class="cls-4" x="16.54" y="37.71" width="2.36" height="2.09"/><rect class="cls-6" x="16.54" y="35.61" width="2.36" height="2.1"/><rect class="cls-6" x="16.54" y="33.51" width="2.36" height="2.1"/><rect class="cls-9" x="16.54" y="31.41" width="2.36" height="2.1"/><rect class="cls-6" x="16.54" y="29.33" width="2.36" height="2.09"/><rect class="cls-6" x="16.54" y="27.23" width="2.36" height="2.1"/><rect class="cls-6" x="16.54" y="25.13" width="2.36" height="2.1"/><rect class="cls-6" x="16.54" y="23.04" width="2.36" height="2.09"/><rect class="cls-6" x="16.54" y="20.95" width="2.36" height="2.1"/><rect class="cls-6" x="16.54" y="18.85" width="2.36" height="2.1"/><rect class="cls-6" x="16.54" y="16.76" width="2.36" height="2.09"/><rect class="cls-6" x="16.54" y="14.66" width="2.36" height="2.1"/><rect class="cls-6" x="16.54" y="12.56" width="2.36" height="2.1"/><rect class="cls-2" x="16.54" y="10.47" width="2.36" height="2.1"/><rect class="cls-2" x="16.54" y="8.38" width="2.36" height="2.09"/><rect class="cls-2" x="16.54" y="6.28" width="2.36" height="2.1"/><rect class="cls-2" x="16.54" y="4.18" width="2.36" height="2.1"/><rect class="cls-2" x="16.54" y="2.1" width="2.36" height="2.09"/><rect class="cls-2" x="16.54" width="2.36" height="2.1"/><rect class="cls-1" x="14.17" y="56.55" width="2.37" height="2.1"/><rect class="cls-1" x="14.17" y="54.46" width="2.37" height="2.1"/><rect class="cls-4" x="14.17" y="52.36" width="2.37" height="2.1"/><rect class="cls-4" x="14.17" y="50.27" width="2.37" height="2.09"/><rect class="cls-4" x="14.17" y="48.17" width="2.37" height="2.1"/><rect class="cls-4" x="14.17" y="46.07" width="2.37" height="2.1"/><rect class="cls-4" x="14.17" y="43.99" width="2.37" height="2.09"/><rect class="cls-4" x="14.17" y="41.89" width="2.37" height="2.1"/><rect class="cls-4" x="14.17" y="39.79" width="2.37" height="2.1"/><rect class="cls-1" x="14.17" y="37.71" width="2.37" height="2.09"/><rect class="cls-7" x="14.17" y="35.61" width="2.37" height="2.1"/><rect class="cls-6" x="14.17" y="33.51" width="2.37" height="2.1"/><rect class="cls-9" x="14.17" y="31.41" width="2.37" height="2.1"/><rect class="cls-6" x="14.17" y="29.33" width="2.37" height="2.09"/><rect class="cls-6" x="14.17" y="27.23" width="2.37" height="2.1"/><rect class="cls-6" x="14.17" y="25.13" width="2.37" height="2.1"/><rect class="cls-6" x="14.17" y="23.04" width="2.37" height="2.09"/><rect class="cls-6" x="14.17" y="20.95" width="2.37" height="2.1"/><rect class="cls-6" x="14.17" y="18.85" width="2.37" height="2.1"/><rect class="cls-6" x="14.17" y="16.76" width="2.37" height="2.09"/><rect class="cls-6" x="14.17" y="14.66" width="2.37" height="2.1"/><rect class="cls-7" x="14.17" y="12.56" width="2.37" height="2.1"/><rect class="cls-2" x="14.17" y="10.47" width="2.37" height="2.1"/><rect class="cls-2" x="14.17" y="8.38" width="2.37" height="2.09"/><rect class="cls-2" x="14.17" y="6.28" width="2.37" height="2.1"/><rect class="cls-2" x="14.17" y="4.18" width="2.37" height="2.1"/><rect class="cls-2" x="14.17" y="2.1" width="2.37" height="2.09"/><rect class="cls-2" x="14.17" width="2.37" height="2.1"/><rect class="cls-3" x="11.81" y="58.65" width="2.36" height="2.09"/><rect class="cls-1" x="11.81" y="56.55" width="2.36" height="2.1"/><rect class="cls-1" x="11.81" y="54.46" width="2.36" height="2.1"/><rect class="cls-4" x="11.81" y="52.36" width="2.36" height="2.1"/><rect class="cls-4" x="11.81" y="50.27" width="2.36" height="2.09"/><rect class="cls-4" x="11.81" y="48.17" width="2.36" height="2.1"/><rect class="cls-4" x="11.81" y="46.07" width="2.36" height="2.1"/><rect class="cls-4" x="11.81" y="43.99" width="2.36" height="2.09"/><rect class="cls-1" x="11.81" y="41.89" width="2.36" height="2.1"/><rect class="cls-1" x="11.81" y="39.79" width="2.36" height="2.1"/><rect class="cls-1" x="11.81" y="37.71" width="2.36" height="2.09"/><rect class="cls-7" x="11.81" y="35.61" width="2.36" height="2.1"/><rect class="cls-7" x="11.81" y="33.51" width="2.36" height="2.1"/><rect class="cls-7" x="11.81" y="31.41" width="2.36" height="2.1"/><rect class="cls-9" x="11.81" y="29.33" width="2.36" height="2.09"/><rect class="cls-6" x="11.81" y="27.23" width="2.36" height="2.1"/><rect class="cls-6" x="11.81" y="25.13" width="2.36" height="2.1"/><rect class="cls-7" x="11.81" y="23.04" width="2.36" height="2.09"/><rect class="cls-8" x="11.81" y="20.95" width="2.36" height="2.1"/><rect class="cls-8" x="11.81" y="18.85" width="2.36" height="2.1"/><rect class="cls-7" x="11.81" y="16.76" width="2.36" height="2.09"/><rect class="cls-6" x="11.81" y="14.66" width="2.36" height="2.1"/><rect class="cls-7" x="11.81" y="12.56" width="2.36" height="2.1"/><rect class="cls-2" x="11.81" y="10.47" width="2.36" height="2.1"/><rect class="cls-2" x="11.81" y="8.38" width="2.36" height="2.09"/><rect class="cls-2" x="11.81" y="6.28" width="2.36" height="2.1"/><rect class="cls-2" x="11.81" y="4.18" width="2.36" height="2.1"/><rect class="cls-2" x="11.81" y="2.1" width="2.36" height="2.09"/><rect class="cls-3" x="9.45" y="58.65" width="2.36" height="2.09"/><rect class="cls-5" x="9.45" y="56.55" width="2.36" height="2.1"/><rect class="cls-5" x="9.45" y="54.46" width="2.36" height="2.1"/><rect class="cls-4" x="9.45" y="52.36" width="2.36" height="2.1"/><rect class="cls-4" x="9.45" y="50.27" width="2.36" height="2.09"/><rect class="cls-4" x="9.45" y="48.17" width="2.36" height="2.1"/><rect class="cls-4" x="9.45" y="46.07" width="2.36" height="2.1"/><rect class="cls-1" x="9.45" y="43.99" width="2.36" height="2.09"/><rect class="cls-1" x="9.45" y="41.89" width="2.36" height="2.1"/><rect class="cls-1" x="9.45" y="39.79" width="2.36" height="2.1"/><rect class="cls-2" x="9.45" y="37.71" width="2.36" height="2.09"/><rect class="cls-2" x="9.45" y="35.61" width="2.36" height="2.1"/><rect class="cls-2" x="9.45" y="33.51" width="2.36" height="2.1"/><rect class="cls-2" x="9.45" y="31.41" width="2.36" height="2.1"/><rect class="cls-7" x="9.45" y="29.33" width="2.36" height="2.09"/><rect class="cls-7" x="9.45" y="27.23" width="2.36" height="2.1"/><rect class="cls-6" x="9.45" y="25.13" width="2.36" height="2.1"/><rect class="cls-6" x="9.45" y="23.04" width="2.36" height="2.09"/><rect class="cls-6" x="9.45" y="20.95" width="2.36" height="2.1"/><rect class="cls-7" x="9.45" y="18.85" width="2.36" height="2.1"/><rect class="cls-7" x="9.45" y="16.76" width="2.36" height="2.09"/><rect class="cls-7" x="9.45" y="14.66" width="2.36" height="2.1"/><rect class="cls-7" x="9.45" y="12.56" width="2.36" height="2.1"/><rect class="cls-2" x="9.45" y="10.47" width="2.36" height="2.1"/><rect class="cls-2" x="9.45" y="8.38" width="2.36" height="2.09"/><rect class="cls-2" x="9.45" y="6.28" width="2.36" height="2.1"/><rect class="cls-2" x="9.45" y="4.18" width="2.36" height="2.1"/><rect class="cls-3" x="7.08" y="58.65" width="2.37" height="2.09"/><rect class="cls-5" x="7.08" y="56.55" width="2.37" height="2.1"/><rect class="cls-5" x="7.08" y="54.46" width="2.37" height="2.1"/><rect class="cls-4" x="7.08" y="52.36" width="2.37" height="2.1"/><rect class="cls-4" x="7.08" y="50.27" width="2.37" height="2.09"/><rect class="cls-1" x="7.08" y="48.17" width="2.37" height="2.1"/><rect class="cls-1" x="7.08" y="46.07" width="2.37" height="2.1"/><rect class="cls-1" x="7.08" y="43.99" width="2.37" height="2.09"/><rect class="cls-1" x="7.08" y="41.89" width="2.37" height="2.1"/><rect class="cls-1" x="7.08" y="39.79" width="2.37" height="2.1"/><rect class="cls-1" x="7.08" y="37.71" width="2.37" height="2.09"/><rect class="cls-2" x="7.08" y="35.61" width="2.37" height="2.1"/><rect class="cls-2" x="7.08" y="33.51" width="2.37" height="2.1"/><rect class="cls-2" x="7.08" y="31.41" width="2.37" height="2.1"/><rect class="cls-2" x="7.08" y="29.33" width="2.37" height="2.09"/><rect class="cls-2" x="7.08" y="27.23" width="2.37" height="2.1"/><rect class="cls-2" x="7.08" y="25.13" width="2.37" height="2.1"/><rect class="cls-2" x="7.08" y="23.04" width="2.37" height="2.09"/><rect class="cls-2" x="7.08" y="20.95" width="2.37" height="2.1"/><rect class="cls-2" x="7.08" y="18.85" width="2.37" height="2.1"/><rect class="cls-2" x="7.08" y="16.76" width="2.37" height="2.09"/><rect class="cls-2" x="7.08" y="14.66" width="2.37" height="2.1"/><rect class="cls-2" x="7.08" y="12.56" width="2.37" height="2.1"/><rect class="cls-2" x="7.08" y="10.47" width="2.37" height="2.1"/><rect class="cls-2" x="7.08" y="8.38" width="2.37" height="2.09"/><rect class="cls-2" x="7.08" y="6.28" width="2.37" height="2.1"/><rect class="cls-1" x="4.73" y="58.65" width="2.36" height="2.09"/><rect class="cls-1" x="4.73" y="56.55" width="2.36" height="2.1"/><rect class="cls-4" x="4.73" y="54.46" width="2.36" height="2.1"/><rect class="cls-4" x="4.73" y="52.36" width="2.36" height="2.1"/><rect class="cls-1" x="4.73" y="50.27" width="2.36" height="2.09"/><rect class="cls-1" x="4.73" y="48.17" width="2.36" height="2.1"/><rect class="cls-1" x="4.73" y="46.07" width="2.36" height="2.1"/><rect class="cls-1" x="4.73" y="43.99" width="2.36" height="2.09"/><rect class="cls-1" x="4.73" y="41.89" width="2.36" height="2.1"/><rect class="cls-1" x="4.73" y="39.79" width="2.36" height="2.1"/><rect class="cls-2" x="4.73" y="37.71" width="2.36" height="2.09"/><rect class="cls-2" x="4.73" y="35.61" width="2.36" height="2.1"/><rect class="cls-2" x="4.73" y="33.51" width="2.36" height="2.1"/><rect class="cls-2" x="4.73" y="31.41" width="2.36" height="2.1"/><rect class="cls-2" x="4.73" y="29.33" width="2.36" height="2.09"/><rect class="cls-2" x="4.73" y="27.23" width="2.36" height="2.1"/><rect class="cls-2" x="4.73" y="25.13" width="2.36" height="2.1"/><rect class="cls-2" x="4.73" y="23.04" width="2.36" height="2.09"/><rect class="cls-2" x="4.73" y="20.95" width="2.36" height="2.1"/><rect class="cls-2" x="4.73" y="18.85" width="2.36" height="2.1"/><rect class="cls-2" x="4.73" y="16.76" width="2.36" height="2.09"/><rect class="cls-2" x="4.73" y="14.66" width="2.36" height="2.1"/><rect class="cls-2" x="4.73" y="12.56" width="2.36" height="2.1"/><rect class="cls-2" x="4.73" y="10.47" width="2.36" height="2.1"/><rect class="cls-2" x="4.73" y="8.38" width="2.36" height="2.09"/><rect class="cls-1" x="2.36" y="58.65" width="2.37" height="2.09"/><rect class="cls-1" x="2.36" y="56.55" width="2.37" height="2.1"/><rect class="cls-1" x="2.36" y="54.46" width="2.37" height="2.1"/><rect class="cls-1" x="2.36" y="52.36" width="2.37" height="2.1"/><rect class="cls-1" x="2.36" y="50.27" width="2.37" height="2.09"/><rect class="cls-1" x="2.36" y="48.17" width="2.37" height="2.1"/><rect class="cls-1" x="2.36" y="46.07" width="2.37" height="2.1"/><rect class="cls-1" x="2.36" y="43.99" width="2.37" height="2.09"/><rect class="cls-1" x="2.36" y="41.89" width="2.37" height="2.1"/><rect class="cls-1" x="2.36" y="39.79" width="2.37" height="2.1"/><rect class="cls-1" x="2.36" y="37.71" width="2.37" height="2.09"/><rect class="cls-1" y="58.65" width="2.36" height="2.09"/><rect class="cls-1" y="56.55" width="2.36" height="2.1"/><rect class="cls-1" y="54.46" width="2.36" height="2.1"/><rect class="cls-1" y="52.36" width="2.36" height="2.1"/><rect class="cls-1" y="50.27" width="2.36" height="2.09"/><rect class="cls-1" y="48.17" width="2.36" height="2.1"/><rect class="cls-1" y="46.07" width="2.36" height="2.1"/><rect class="cls-1" y="43.99" width="2.36" height="2.09"/></g></g></svg>