<svg xmlns="http://www.w3.org/2000/svg" viewBox="0 0 272.88 263.79"><defs><style>.cls-1,.cls-2{fill:#9c6a51;}.cls-2{font-size:8px;font-family:ImprintMT-Shadow, Imprint MT Shadow;}</style></defs><title>Asset 4</title><g id="Layer_2" data-name="Layer 2"><g id="code"><path class="cls-1" d="M43,27.92c.77-1.38,1.45-2.73,2.25-4,1.26-2,2.63-3.92,3.91-5.91.51-.79.89-1.68,1.36-2.51s.88-1.45,1.31-2.18c.67-1.18,1.43-2.32,2-3.56a26.1,26.1,0,0,1,2.87-4.82c.52-.71,1-1.47,1.49-2.2.1-.15.31-.34.44-.32a.77.77,0,0,1,.46.39,7.51,7.51,0,0,1,.36,4c-.16,1.2-.5,2.37-.68,3.56-.15,1-.13,2.08-.29,3.1a60.85,60.85,0,0,0-.37,9.44c0,2.67.28,5.34.4,8a18.32,18.32,0,0,1-.2,4.18,15.08,15.08,0,0,0-.07,3c0,1.43.06,2.86.16,4.29a1,1,0,0,0,.49.79c.34.13.77.31,1.16-.13a6,6,0,0,0,1.19-2.4c.35-1.26.78-2.5,1.12-3.76.44-1.68.89-3.35,1.22-5,.29-1.49.34-3,.65-4.52A3.79,3.79,0,0,1,65.86,25c.51-.33.78-.14.78.48,0,1.73,0,3.45,0,5.17a10.65,10.65,0,0,1,0,1.13,3.78,3.78,0,0,0,.74,2.43,2.78,2.78,0,0,0,2.06,1.15.89.89,0,0,0,.68-.36,4.47,4.47,0,0,0,.71-1.23c.48-1.47,1.22-2.89,1.13-4.5,0-.46-.18-.9-.23-1.36a1.25,1.25,0,0,1,.08-.67c.58-.94,1.16-1.89,1.8-2.79a5.48,5.48,0,0,1,1.07-.85,3,3,0,0,1,.25.58c.11,1,.21,2.07.3,3.1.19,2.07.34,4.14.55,6.2A11.15,11.15,0,0,0,76.25,35c.33,1.18.62,2.37,1,3.55.14.48.36.94.6,1.54A5.88,5.88,0,0,0,79.09,39c.57-.92,1-1.93,1.5-2.89a14.24,14.24,0,0,0,1-3.51,42.6,42.6,0,0,0,.92-5.61c.15-1.42.26-2.84.41-4.26.08-.67.23-1.34.28-2a13.88,13.88,0,0,0-.08-1.55l-.43,0-4.5-.16a4.91,4.91,0,0,0-.66.06c-.6.06-1.21.16-1.82.17-2,0-4,0-6.08,0a2.09,2.09,0,0,1-.71,0,1.75,1.75,0,0,1-.8-.54c-.22-.32.07-.6.3-.84.75-.76,1.53-1.51,2.25-2.31a2.11,2.11,0,0,1,1.51-.6c.86-.08,1.72-.06,2.58-.09l5-.19c1.16,0,2.32-.06,3.48-.12a.52.52,0,0,0,.41-.3c.21-1.07.42-2.13.55-3.21a40.61,40.61,0,0,0,.4-6.88,1.84,1.84,0,0,1,.75-1.64C86.2,1.74,87.07,1,88,.32c.11-.09.25-.16.49-.32a9.38,9.38,0,0,1,.21,1.45c0,1.24-.09,2.48-.16,3.73-.07,1.08-.18,2.17-.22,3.26-.07,1.92-.1,3.85-.15,5.77a.35.35,0,0,0,0,.12c2.07,0,4.09,0,6.12,0,4.37,0,8.73-.11,13.1-.16.63,0,.79-.17.76-.78-.06-1.18-.1-2.35-.18-3.53-.07-1-.18-2.06-.28-3.1s-.18-1.89-.25-2.84a1.47,1.47,0,0,1,.41-1.2c.69-.67,1.33-1.38,2-2a2.44,2.44,0,0,1,1-.43c.1,0,.37.23.4.38a50.2,50.2,0,0,1,.8,8.12c0,.82.27,1.66.22,2.51s-.11,1.9-.16,2.85c0,.17,0,.34,0,.57h.46c2.07-.1,4.15-.25,6.22-.31,2.64-.07,5.29-.08,7.93-.12,1,0,1.17.36.8,1.29a4.61,4.61,0,0,1-1,1.41c-.65.73-1.3,1.44-1.92,2.19a1.54,1.54,0,0,1-1.23.63h-.15c-1.09,0-2.18.12-3.26.1-2-.06-4-.21-6.07-.26a10,10,0,0,0-1.85.28c0,.6,0,1.14,0,1.68,0,1.94.12,3.89.14,5.83.06,3.94.12,7.87.1,11.81a40.1,40.1,0,0,1-.31,5.25,7.12,7.12,0,0,1-2.46,4.36,2.28,2.28,0,0,1-2.92.27,6.77,6.77,0,0,1-3.32-4c-.28-.81-.78-1.55-1-2.37-.44-1.36-.79-2.75-1.12-4.14a12.25,12.25,0,0,1-.16-1.77c-.87.62-1.46,1.6-2.58,1.77s-2,.56-3.08-.22a4.27,4.27,0,0,0,0,.55,8.94,8.94,0,0,1-.64,3.5,2,2,0,0,0-.12.49,5.4,5.4,0,0,1-1.59,3.13,1.9,1.9,0,0,0-.34.45A3.33,3.33,0,0,1,88,47.72a11.73,11.73,0,0,1-1.63-1.25c-1.73-1.51-2.08-3.6-2.55-5.64a19.14,19.14,0,0,1-.23-2.68,1.86,1.86,0,0,0-.18.35,8.7,8.7,0,0,1-2.24,4.67A14.85,14.85,0,0,0,79.77,45a2.47,2.47,0,0,1-3.85.14,11.4,11.4,0,0,1-2.87-5.26c-.17-.86-.25-1.74-.36-2.57-.37.42-.8.92-1.24,1.39a5,5,0,0,1-2.3,1.46,2.52,2.52,0,0,1-2.54-.69c-.48-.45-1-.88-1.47-1.34-.18,1.26-.32,2.5-.55,3.74a17.4,17.4,0,0,1-2.52,6.74c-.37.55-.73,1.11-1.14,1.62-1.48,1.83-3.19,1.86-5.11.65a4.38,4.38,0,0,1-2.25-3.61c-.11-1.68-.42-3.34-.58-5-.11-1.16-.12-2.32-.16-3.48,0-1.8-.06-3.61-.13-5.41-.09-2-.23-4-.35-6.06-.24.09-.45.1-.52.21-.28.42-.54.86-.78,1.3-.64,1.17-1.25,2.34-1.91,3.5-.87,1.56-1.75,3.12-2.69,4.64a4.59,4.59,0,0,1-1.74,2c-1.3.59-2.48.76-3.23-.62-.27-.51-.69-.93-1-1.42-.77-1.18-1.47-2.4-2.26-3.55-.64-.93-1.37-1.78-2-2.67l-.15,0c-.21,1-.41,2-.61,3.07-.25,1.26-.53,2.53-.74,3.8-.17,1-.24,2.1-.39,3.14-.17,1.2-.37,2.39-.58,3.58a8.6,8.6,0,0,1-2,3.82,13.24,13.24,0,0,1-1.5,1.67,4.68,4.68,0,0,1-1.3.76A.64.64,0,0,1,28,50a13.88,13.88,0,0,1,0-1.58c.06-1.05.17-2.1.2-3.16s0-2.32,0-3.48c.05-2.69.13-5.37.14-8.06,0-1.3-.13-2.59-.2-3.88-.05-1-.08-2-.13-3A61,61,0,0,0,27,17.33a9.39,9.39,0,0,0-.49-1.53c-.39-1-.34-2.17-1.11-3a11,11,0,0,0-1.12-1,15.68,15.68,0,0,0-4-2,3.91,3.91,0,0,0-3-.35c-2.79,1-5.65,1.87-7.9,4a14.15,14.15,0,0,0-3.74,5.56,11.64,11.64,0,0,0-.34,4.77,5.46,5.46,0,0,0,.72,2.06,9.2,9.2,0,0,0,2.6,3,10.78,10.78,0,0,0,4.64,1.86,25.61,25.61,0,0,0,2.61.37,9.05,9.05,0,0,0,3.78-.75,3.41,3.41,0,0,0,1.68-2.51.78.78,0,0,0-.17-.45,5,5,0,0,0-2.26-1.33,1.89,1.89,0,0,0-1.15.24,2.51,2.51,0,0,1-2.07.15c-.46-.14-.9-.33-1.34-.51A2.75,2.75,0,0,1,12.48,23a12.32,12.32,0,0,1,.17-1.82c.26-1.5,2.27-2.59,3.42-2.66a8.14,8.14,0,0,1,4.29,1.11A14.15,14.15,0,0,1,22,20.68a5.7,5.7,0,0,1,1.76,2.1,17.38,17.38,0,0,1,.89,1.71,10.3,10.3,0,0,1,.54,2.37,6.15,6.15,0,0,1-1.48,4.84,15.55,15.55,0,0,1-6.31,4,9.1,9.1,0,0,1-2.78.24c-.66,0-1.32,0-2-.05a11.62,11.62,0,0,1-6.49-2.18,18,18,0,0,1-2.62-2A12.89,12.89,0,0,1,.63,27.07a3.21,3.21,0,0,1-.22-.79C.26,24.44.08,22.59,0,20.74a5.14,5.14,0,0,1,.35-2,21.52,21.52,0,0,1,2-4.48,11.4,11.4,0,0,0,1-2.13,8.17,8.17,0,0,1,2.2-2.91c.57-.51,1.18-1,1.79-1.44C8.32,7,9.38,6.19,10.43,5.37A8,8,0,0,1,15,3.63c1.09-.06,2.17-.08,3.26-.11.49,0,1,0,1.46,0A7.15,7.15,0,0,1,23,4.13c.71.31,1.5.4,2.24.66a5.12,5.12,0,0,1,1.44.72,13.44,13.44,0,0,1,3.93,4.7c.48,1,1,1.9,1.53,2.84a8.43,8.43,0,0,0,.57.64c.69.88,1.33,1.81,2,2.67a46.41,46.41,0,0,1,3.91,5.43,1,1,0,0,1,.17.25c.63,1.84,2.12,3.11,3.16,4.67C42.31,27.1,42.63,27.46,43,27.92ZM87.86,19a2,2,0,0,0-.1.34c-.11,1.74-.26,3.47-.31,5.2,0,1,.13,2,.18,3.06q.16,3.15.3,6.32a20,20,0,0,0,1.32,5.49,2,2,0,0,0,.67,1,1.93,1.93,0,0,0,2.81-1,5.84,5.84,0,0,0,.44-2.58,2.06,2.06,0,0,1,0-.35,3.74,3.74,0,0,0,0-.75c-.12-.7-.28-1.39-.4-2.09,0-.25,0-.51,0-.76a5.22,5.22,0,0,1,.87-4.11,6.3,6.3,0,0,0,.62-.87A7.34,7.34,0,0,1,98,24.42a5,5,0,0,1,2.37-.12c.88,0,.93.09.76.94,0,.06,0,.15,0,.2a1,1,0,0,1-.26.29c-.1.08-.25.1-.35.19-1,1-2.06,1.92-3.07,2.91a2.1,2.1,0,0,0-.45.78c-.17.58-.27,1.18-.43,1.76a3.16,3.16,0,0,0,.59,2.9c.56.73.87.77,1.5.08a17.25,17.25,0,0,0,3-3.71,4.29,4.29,0,0,0,.53-1.46c.13-1.59.12-3.2.25-4.79a1.44,1.44,0,0,1,.84-1.38c.13-.05.22-.21.32-.32l1.24-1.47a2.43,2.43,0,0,1,.23.49,33.54,33.54,0,0,1,.25,3.46c0,3.31-.19,6.61-.26,9.92a16.4,16.4,0,0,0,.18,2.8,19.4,19.4,0,0,0,.7,2.92c.14.45.25,1.08.95,1.1.3,0,.61,0,1,0,.13-1.39.34-2.74.37-4.09q.08-4.29-.24-8.57c-.23-3.09-.21-6.2-.3-9.29v-.52a7.81,7.81,0,0,1-1,.14c-1.88,0-3.75.06-5.62,0-3-.08-5.89-.23-8.84-.35l-1.89-.1Z"/><path class="cls-1" d="M118.46,41.3a10.3,10.3,0,0,0,1.58-.94,6.9,6.9,0,0,0,1.19-1.49c.69-1.17,1.34-2.36,2-3.57a11,11,0,0,0,.64-1.59c.48-1.31.92-2.63,1.42-3.93.69-1.76,1.4-3.5,2.15-5.23.55-1.28,1.17-2.53,1.75-3.79a9.44,9.44,0,0,0,.57-1.31c.25-.9,1-1,1.74-1.17a1.15,1.15,0,0,1,.86.31A19.71,19.71,0,0,1,137.16,25a8.05,8.05,0,0,0,.93,1.64,24.17,24.17,0,0,1,2.57,5.32,12.57,12.57,0,0,1,.41,2.15c.06.3.18.59.21.89.11,1,.22,2.06.28,3.1a1,1,0,0,0,.4.81c.39.28.73.62,1.1.92a16.56,16.56,0,0,0,7.34,3.28,5.65,5.65,0,0,0,2.49,0,5.77,5.77,0,0,0,2-1.27,2.58,2.58,0,0,0,.64-3.08c-.17-.45-.32-.9-.5-1.34s-.55-.58-1-.19A4.19,4.19,0,0,1,151,38.35h-.61a2.32,2.32,0,0,1-2.44-1.76,6.59,6.59,0,0,1-.09-3.63,2.29,2.29,0,0,1,2.33-2c1.07-.07,2.14-.09,3.21-.13a1.54,1.54,0,0,1,.61,0,7.24,7.24,0,0,1,3.5,2.2,12.78,12.78,0,0,1,2.36,4.27,6.37,6.37,0,0,1,.41,3.3,9.88,9.88,0,0,1-1.06,2.07,8.16,8.16,0,0,1-3.46,3.3,9.6,9.6,0,0,0-.83.59,6.86,6.86,0,0,1-4.23,1A8.47,8.47,0,0,1,147,46.8a1.46,1.46,0,0,1-.44-.26A15.34,15.34,0,0,0,143,44.22c-.83-.49-1.61-1.06-2.39-1.58a20.67,20.67,0,0,1-3.41,4.17,4.43,4.43,0,0,1-2.1,1.38,2.46,2.46,0,0,1-2.35-.46c-.63-.52-1.37-.91-1.73-1.71-.07-.16-.31-.25-.46-.39a6.38,6.38,0,0,1-2.11-6.31,1.79,1.79,0,0,0,.07-.51,3.58,3.58,0,0,1,.83-2.51c.24-.33.5-.65.76-1a2.89,2.89,0,0,1,2.3-1.14c1.11.11,2.35,0,3.37.92a23,23,0,0,0-3.5-12,22,22,0,0,1-.61,2.66c-.76,2.09-1.62,4.15-2.42,6.23s-1.51,3.94-2.26,5.91c-.06.14-.08.3-.15.43-1.26,2.33-2,4.94-4,6.86a13.23,13.23,0,0,0-1.54,2.14,2.56,2.56,0,0,1-1.7,1.12,3.82,3.82,0,0,0-.51.23,1.49,1.49,0,0,1-.72.17A4.2,4.2,0,0,1,115,46.46c-.12-.28-.35-.51-.45-.8a5,5,0,0,1-.43-1.48c-.14-2.78-.27-5.55-.32-8.33,0-1.7.11-3.4.15-5.1,0-.84,0-1.67,0-2.5a2.22,2.22,0,0,1,.6-1.63c.46-.5.83-1.09,1.3-1.58a9.27,9.27,0,0,1,1.36-1.13.66.66,0,0,1,1,.33,1.17,1.17,0,0,1,.1.44c-.06,2.15-.13,4.29-.17,6.44,0,1.53-.06,3.06,0,4.58C118.14,37.51,118.32,39.3,118.46,41.3Zm14.92.94a3.45,3.45,0,0,0,.84-.27c.92-.58,1.84-1.18,1.76-2.48,0,0,0-.07,0-.09s-.07-.34-.17-.41a22.71,22.71,0,0,0-2.29-1.52,1.73,1.73,0,0,0-1.28-.12,2.18,2.18,0,0,0-1.05.92,1.45,1.45,0,0,0-.27,1.37A7.94,7.94,0,0,0,133,42.06,1.15,1.15,0,0,0,133.38,42.24Z"/><text class="cls-2" transform="translate(109.47 73.29)">feather to fire <tspan x="0" y="12">fire to blood </tspan><tspan x="0" y="24">blood to bone </tspan><tspan x="0" y="36">bone to marrow </tspan><tspan x="0" y="48">marrow to ashes </tspan><tspan x="0" y="60">ashes to snow</tspan></text></g></g></svg>